<svg xmlns="http://www.w3.org/2000/svg" xmlns:xlink="http://www.w3.org/1999/xlink" width="48" height="48" version="1.1">
<!-- Humanity icon theme GNU GPL 2 https://opensource.org/licenses/gpl-2.0 -->
<!-- python scour -enable-id-stripping -indent=tab -strip-xml-prolog -->
<defs>
<radialGradient id="radialGradient2506" xlink:href="#linearGradient5060-6" gradientUnits="userSpaceOnUse" cy="486.65" cx="605.71" gradientTransform="matrix(-.065534 0 0 .024706 -21.829 10.577)" r="117.14"/>
<linearGradient id="linearGradient5060-6">
<stop offset="0"/>
<stop stop-opacity="0" offset="1"/>
</linearGradient>
<radialGradient id="radialGradient2504" xlink:href="#linearGradient5060-6" gradientUnits="userSpaceOnUse" cy="486.65" cx="605.71" gradientTransform="matrix(.065534 0 0 .024706 -69.175 10.577)" r="117.14"/>
<linearGradient id="linearGradient2501" y2="609.51" gradientUnits="userSpaceOnUse" x2="302.86" gradientTransform="matrix(.065534 0 0 .024706 -69.188 10.577)" y1="366.65" x1="302.86">
<stop stop-opacity="0" offset="0"/>
<stop offset=".5"/>
<stop stop-opacity="0" offset="1"/>
</linearGradient>
<linearGradient id="linearGradient2432" y2="15.738" spreadMethod="reflect" gradientUnits="userSpaceOnUse" x2="25.525" gradientTransform="translate(0 -2.6325)" y1="30.189" x1="25.525">
<stop stop-color="#1e1e1e" offset="0"/>
<stop stop-color="#1e1e1e" stop-opacity="0" offset="1"/>
</linearGradient>
<linearGradient id="linearGradient2435" y2="44.001" gradientUnits="userSpaceOnUse" x2="25.577" gradientTransform="matrix(1 0 0 1.1071 7.4172e-7 -5.6607)" y1="15" x1="25.577">
<stop stop-color="#fff" offset="0"/>
<stop stop-color="#fff" stop-opacity="0" offset="1"/>
</linearGradient>
<linearGradient id="linearGradient2438" y2="48.072" gradientUnits="userSpaceOnUse" x2="20.053" gradientTransform="translate(0 -1)" y1="8.1634" x1="20.053">
<stop stop-color="#f2f2f2" offset="0"/>
<stop stop-color="#dbdbdb" offset=".87427"/>
<stop stop-color="#999" offset="1"/>
</linearGradient>
<linearGradient id="linearGradient2441" y2="14.038" gradientUnits="userSpaceOnUse" x2="28.103" gradientTransform="matrix(1 0 0 1.1014 -2.7099e-7 -5.5128)" y1="45" x1="28.103">
<stop stop-color="#787878" offset="0"/>
<stop stop-color="#b4b4b4" offset="1"/>
</linearGradient>
<linearGradient id="linearGradient2449" y2="15.738" spreadMethod="reflect" gradientUnits="userSpaceOnUse" x2="25.525" gradientTransform="translate(0 -1.1505)" y1="30.189" x1="25.525">
<stop stop-color="#fff" offset="0"/>
<stop stop-color="#fff" stop-opacity="0" offset="1"/>
</linearGradient>
</defs>
<g transform="translate(-5.984e-4,-4.0002542)">
<g transform="matrix(1.0008 0 0 1.0008 69.539 20.344)" stroke-width="1.0304">
<rect opacity=".40206" height="6" width="31.644" y="19.636" x="-61.324" fill="url(#linearGradient2501)"/>
<path opacity=".40206" d="m-29.68 19.636v5.9997c3.3749 0.01129 8.1588-1.3442 8.1588-3.0002s-3.7661-2.9994-8.1588-2.9994z" fill="url(#radialGradient2504)"/>
<path opacity=".40206" d="m-61.324 19.636v5.9997c-3.3749 0.01129-8.1588-1.3442-8.1588-3.0002s3.7661-2.9994 8.1588-2.9994z" fill="url(#radialGradient2506)"/>
</g>
<rect stroke-linejoin="round" height="33" stroke="url(#linearGradient2441)" stroke-linecap="square" fill="url(#linearGradient2438)" fill-rule="evenodd" rx="1" ry="1" width="45" y="10.5" x="1.5"/>
<rect opacity=".4" rx=".082552" ry=".083472" height="31" width="43" stroke="url(#linearGradient2435)" stroke-linecap="square" y="11.5" x="2.5" fill="none"/>
<path opacity=".5" d="m3.2367 15.212 20.763 18.637 21.077-18.762m-26.421 14.262-13.475 13.633 13.475-13.633zm10.719 0.063 13.569 13.319-13.569-13.319z" stroke="url(#linearGradient2449)" fill="none"/>
<path opacity=".5" d="m3.2367 13.731 20.763 18.637 21.077-18.763m-26.421 14.263-13.475 13.632 13.475-13.632zm10.719 0.062 13.569 13.319-13.569-13.319z" stroke="url(#linearGradient2432)" fill="none"/>
</g>
</svg>
