<svg xmlns="http://www.w3.org/2000/svg" xmlns:xlink="http://www.w3.org/1999/xlink" width="48" height="48" version="1.1">
<!-- Humanity icon theme GNU GPL 2 https://opensource.org/licenses/gpl-2.0 -->
<defs>
<linearGradient id="lg5060">
<stop offset="0"/>
<stop stop-opacity="0" offset="1"/>
</linearGradient>
<linearGradient id="lg3312" y2="5.4565" gradientUnits="userSpaceOnUse" x2="36.358" gradientTransform="matrix(.99770 0 0 1.0407 .16380 -1.1058)" y1="8.059" x1="32.892">
<stop stop-color="#fefefe" offset="0"/>
<stop stop-color="#cbcbcb" offset="1"/>
</linearGradient>
<linearGradient id="lg3316" y2="46.017" gradientUnits="userSpaceOnUse" x2="24" gradientTransform="matrix(1 0 0 .97778 0 -.96667)" y1="2" x1="24">
<stop stop-color="#fff" offset="0"/>
<stop stop-color="#fff" stop-opacity="0" offset="1"/>
</linearGradient>
<radialGradient id="rg3319" gradientUnits="userSpaceOnUse" cy="112.3" cx="102" gradientTransform="matrix(.36170 0 0 -.39078 .85106 47.517)" r="139.56">
<stop stop-color="#b7b8b9" offset="0"/>
<stop stop-color="#ececec" offset=".18851"/>
<stop stop-color="#fafafa" stop-opacity="0" offset=".25718"/>
<stop stop-color="#fff" stop-opacity="0" offset=".30111"/>
<stop stop-color="#fafafa" stop-opacity="0" offset=".53130"/>
<stop stop-color="#ebecec" stop-opacity="0" offset=".84490"/>
<stop stop-color="#e1e2e3" stop-opacity="0" offset="1"/>
</radialGradient>
<linearGradient id="lg3322" y2="47.013" gradientUnits="userSpaceOnUse" x2="25.132" gradientTransform="matrix(1 0 0 .95617 -1.0065e-7 -1.9149)" y1=".98521" x1="25.132">
<stop stop-color="#f4f4f4" offset="0"/>
<stop stop-color="#dbdbdb" offset="1"/>
</linearGradient>
<linearGradient id="lg3324" y2="2.9062" gradientUnits="userSpaceOnUse" x2="-51.786" gradientTransform="matrix(.80750 0 0 .89483 59.41 -2.9806)" y1="50.786" x1="-51.786">
<stop stop-color="#aaa" offset="0"/>
<stop stop-color="#c8c8c8" offset="1"/>
</linearGradient>
<radialGradient id="rg3327" xlink:href="#lg5060" gradientUnits="userSpaceOnUse" cy="486.65" cx="605.71" gradientTransform="matrix(.023040 0 0 0.0147 26.361 37.04)" r="117.14"/>
<radialGradient id="rg3330" xlink:href="#lg5060" gradientUnits="userSpaceOnUse" cy="486.65" cx="605.71" gradientTransform="matrix(-.023040 0 0 0.0147 21.623 37.04)" r="117.14"/>
<linearGradient id="lg3333" y2="609.51" gradientUnits="userSpaceOnUse" x2="302.86" gradientTransform="matrix(.067325 0 0 0.0147 -.34114 37.04)" y1="366.65" x1="302.86">
<stop stop-opacity="0" offset="0"/>
<stop offset=".5"/>
<stop stop-opacity="0" offset="1"/>
</linearGradient>
<filter id="f3212" height="1.3287" width="1.2969" color-interpolation-filters="sRGB" y="-.16434" x="-.14846">
<feGaussianBlur stdDeviation="0.77391625"/>
</filter>
</defs>
<g transform="translate(0.0081,1.4680552)">
<rect opacity=".3" height="3.5701" width="32.508" y="42.43" x="7.7378" fill="url(#lg3333)"/>
<path opacity=".3" d="m7.7378 42.43v3.5699c-1.1865 0.0067-2.8684-0.79982-2.8684-1.7852 0-0.98533 1.324-1.7847 2.8684-1.7847z" fill="url(#rg3330)"/>
<path opacity=".3" d="m40.246 42.43v3.5699c1.1865 0.0067 2.8684-0.79982 2.8684-1.7852 0-0.98533-1.324-1.7847-2.8684-1.7847z" fill="url(#rg3327)"/>
<path stroke-linejoin="round" d="m6.5 0.4972h24.061c1.4069 0.47465 8.9655 5.8822 10.939 9.6264v34.379h-35v-44.006z" stroke="url(#lg3324)" stroke-width=".99992" fill="url(#lg3322)"/>
<path fill="url(#rg3319)" d="m7.3617 44c-0.1993 0-0.3617-0.17546-0.3617-0.39078v-42.204c0-0.21571 0.1624-0.39078 0.3617-0.39078 7.4833 0.1082 15.775-0.16138 23.249 0.0271l10.283 8.866 0.106 33.702c0 0.216-0.162 0.391-0.362 0.391h-33.276z"/>
<path opacity=".6" stroke-linejoin="round" d="m40.5 10.259v33.263h-33v-42.045h22.866" stroke="url(#lg3316)" stroke-width=".99992" fill="none"/>
<path opacity=".4" d="m28.617 0.92126c4.2825 0 2.1532 8.4832 2.1532 8.4832s10.358-1.8023 10.358 2.8187c0-2.6097-11.302-10.729-12.511-11.302z" fill-rule="evenodd" filter="url(#f3212)"/>
<path d="m28.617 0.92126c3.1865 0 2.3358 7.6619 2.3358 7.6619s10.175-0.98105 10.175 3.64c0-1.1259 0.08591-1.9322-0.13378-2.2836-1.578-2.5243-8.395-8.1885-10.857-8.9309-0.184-0.05556-0.593-0.08754-1.52-0.08754z" fill-rule="evenodd" fill="url(#lg3312)"/>
</g>
</svg>