<!DOCTYPE svg PUBLIC "-//W3C//DTD SVG 1.1//EN" "http://www.w3.org/Graphics/SVG/1.1/DTD/svg11.dtd">
<!--
 * Humanity icon theme, GNU GPL 2 http://www.gnu.org/licenses/gpl-2.0.html
 * Cleaned with python scour -enable-id-stripping -indent=tab -strip-xml-prolog
-->
<svg xmlns="http://www.w3.org/2000/svg" width="48" height="48" version="1.1" xmlns:xlink="http://www.w3.org/1999/xlink">
<defs>
<linearGradient id="linearGradient2467" y2="609.51" gradientUnits="userSpaceOnUse" x2="302.86" gradientTransform="matrix(.067325 0 0 0.0147 -.34114 37.04)" y1="366.65" x1="302.86">
<stop stop-opacity="0" offset="0"/>
<stop offset=".5"/>
<stop stop-opacity="0" offset="1"/>
</linearGradient>
<radialGradient id="radialGradient2464" xlink:href="#linearGradient5060" gradientUnits="userSpaceOnUse" cy="486.65" cx="605.71" gradientTransform="matrix(-.023040 0 0 0.0147 21.623 37.04)" r="117.14"/>
<linearGradient id="linearGradient5060">
<stop offset="0"/>
<stop stop-opacity="0" offset="1"/>
</linearGradient>
<radialGradient id="radialGradient2461" xlink:href="#linearGradient5060" gradientUnits="userSpaceOnUse" cy="486.65" cx="605.71" gradientTransform="matrix(.023040 0 0 0.0147 26.361 37.04)" r="117.14"/>
<linearGradient id="linearGradient2458" y2="2.9062" gradientUnits="userSpaceOnUse" x2="-51.786" gradientTransform="matrix(.80750 0 0 .89483 59.41 -2.9806)" y1="53.624" x1="-51.786">
<stop stop-color="#791235" offset="0"/>
<stop stop-color="#dd3b27" offset="1"/>
</linearGradient>
<radialGradient id="radialGradient2456" gradientUnits="userSpaceOnUse" cy="10.898" cx="14.766" gradientTransform="matrix(-2.2703e-8 2.1357 -3.5601 -3.7845e-8 54.621 -24.438)" r="18">
<stop stop-color="#f89b7e" offset="0"/>
<stop stop-color="#e35d4f" offset=".26238"/>
<stop stop-color="#c6262e" offset=".66094"/>
<stop stop-color="#690b2c" offset="1"/>
</radialGradient>
<radialGradient id="radialGradient2453" gradientUnits="userSpaceOnUse" cy="112.3" cx="102" gradientTransform="matrix(.36170 0 0 -.39078 .85106 47.517)" r="139.56">
<stop offset="0"/>
<stop offset=".18851"/>
<stop stop-opacity="0" offset=".25718"/>
<stop stop-opacity="0" offset="1"/>
</radialGradient>
<linearGradient id="linearGradient2450" y2="46.017" gradientUnits="userSpaceOnUse" x2="24" gradientTransform="matrix(1 0 0 .97778 0 -.96667)" y1="2" x1="24">
<stop stop-color="#fff" offset="0"/>
<stop stop-color="#fff" stop-opacity="0" offset="1"/>
</linearGradient>
<linearGradient id="linearGradient2447" y2="44.024" gradientUnits="userSpaceOnUse" x2="23.97" gradientTransform="matrix(.89474 0 0 1.1316 2.5263 -4.6579)" y1="3.981" x1="23.97">
<stop stop-color="#fff" offset="0"/>
<stop stop-color="#dcdcdc" offset="1"/>
</linearGradient>
<filter id="filter3212" y="-.16434" width="1.2969" x="-.14846" height="1.3287">
<feGaussianBlur stdDeviation="0.77391625"/>
</filter>
<linearGradient id="linearGradient2441" y2="5.4565" gradientUnits="userSpaceOnUse" x2="36.358" gradientTransform="matrix(.99770 0 0 1.0407 .16380 -1.1058)" y1="8.059" x1="32.892">
<stop stop-color="#fefefe" offset="0"/>
<stop stop-color="#cbcbcb" offset="1"/>
</linearGradient>
<linearGradient id="linearGradient2438" y2="6.5436" gradientUnits="userSpaceOnUse" x2="34.103" y1="4.8577" x1="35.517">
<stop stop-color="#c4c4c4" offset="0"/>
<stop stop-color="#c4c4c4" stop-opacity="0" offset="1"/>
</linearGradient>
</defs>
<g transform="translate(0.00775,1.4681552)">
<rect opacity=".3" height="3.5701" width="32.508" y="42.43" x="7.7378" fill="url(#linearGradient2467)"/>
<path opacity=".3" d="m7.7378 42.43v3.57c-1.1865 0.007-2.8683-0.8-2.8683-1.785 0-0.986 1.324-1.785 2.8683-1.785z" fill="url(#radialGradient2464)"/>
<path opacity=".3" d="m40.246 42.43v3.57c1.187 0.007 2.869-0.8 2.869-1.785 0-0.986-1.325-1.785-2.869-1.785z" fill="url(#radialGradient2461)"/>
<path stroke-linejoin="round" d="m6.5 0.4972h24.061c0.525 1.9602 6.133 6.8516 10.939 9.6268v34.379h-35v-44.006z" stroke="url(#linearGradient2458)" stroke-width=".99992" fill="url(#radialGradient2456)"/>
<path opacity=".2" d="m7.3617 44c-0.1993 0-0.3617-0.175-0.3617-0.391v-42.204c0-0.2155 0.1624-0.3906 0.3617-0.3906 7.4833 0.108 15.775-0.16158 23.249 0.0269l10.283 8.866 0.106 33.702c0 0.216-0.162 0.391-0.362 0.391h-33.276z" fill="url(#radialGradient2453)"/>
<path opacity=".4" stroke-linejoin="round" d="m40.5 10.259v33.263h-33v-42.044c7.562-0.0003 15.304-0.0003 22.866-0.0003" stroke="url(#linearGradient2450)" stroke-width=".99992" fill="none"/>
<path d="m27.406 1c-11.589 12.595-18.204 14.366-20.406 14.562v4.532c1.6621-0.294 5.832-1.314 10.281-4.844 5.706-4.526 12.531-13.125 12.531-13.125-1.87 4.6478-2.401 20.681-2.437 41.875h13.625v-2.125c-2.217-5.791-3.662-14.147-4.75-21.625-0.643-6.178-0.416-10.624 0.096-14.343-1.921-1.6317-5.621-4.1873-6.829-4.907h-2.111zm-20.406 21.938v5.031c4.811 0 12.203 7.302 15.781 16.031h3c-1.681-7.935-15.11-21.062-18.781-21.062z" fill-rule="evenodd" fill="url(#linearGradient2447)"/>
<path opacity=".15" d="m34.495 5c-5.844 4.0398-17.783 11.014-27.495 9.903v8.983s26.154 4.71 34-5.238v-7.895c-1.355-1.8339-4.358-4.1262-6.505-5.753zm6.505 22.893c-3.121 3.453-6.951 10.273-9.637 16.107l-3.363-0.029c3.138-8.202 8.212-16.258 13-21.971v5.893z" fill-rule="evenodd"/>
<path opacity=".4" d="m28.617 0.92126c4.283 0 2.154 8.4831 2.154 8.4831s10.357-1.8023 10.357 2.8186c0-2.6095-11.302-10.728-12.511-11.302z" fill-rule="evenodd" filter="url(#filter3212)"/>
<path d="m28.617 0.92126c3.187 0 2.336 7.6618 2.336 7.6618s10.175-0.981 10.175 3.6399c0-1.126 0.086-1.932-0.134-2.2834-1.578-2.5242-8.113-8.1884-10.575-8.9308-0.184-0.05556-0.875-0.08754-1.802-0.08754z" fill-rule="evenodd" fill="url(#linearGradient2441)"/>
<path stroke-linejoin="round" d="m30.561 0.5c1.407 0.47465 8.965 5.8794 10.939 9.624v12.285c-40.446 15.729-35.236-21.909-10.939-21.909z" stroke="url(#linearGradient2438)" stroke-width=".99992" fill="none"/>
</g>
</svg>