<svg width="48" height="48" xmlns="http://www.w3.org/2000/svg" xmlns:xlink="http://www.w3.org/1999/xlink">
<!-- Humanity icon theme GNU GPL 2 https://opensource.org/licenses/gpl-2.0 -->
<defs>
<linearGradient id="lg5060">
<stop offset="0"/>
<stop stop-opacity="0" offset="1"/>
</linearGradient>
<linearGradient id="lg3312" x1="32.892" x2="36.358" y1="8.059" y2="5.4565" gradientTransform="matrix(.9977 0 0 1.0407 .1638 -1.1058)" gradientUnits="userSpaceOnUse">
<stop stop-color="#fefefe" offset="0"/>
<stop stop-color="#cbcbcb" offset="1"/>
</linearGradient>
<linearGradient id="lg3316" x1="24" x2="24" y1="2" y2="46.017" gradientTransform="matrix(1 0 0 .97778 0 -.96667)" gradientUnits="userSpaceOnUse">
<stop stop-color="#fff" offset="0"/>
<stop stop-color="#fff" stop-opacity="0" offset="1"/>
</linearGradient>
<radialGradient id="rg3319" cx="102" cy="112.3" r="139.56" gradientTransform="matrix(.3617 0 0 -.39078 .85106 47.517)" gradientUnits="userSpaceOnUse">
<stop stop-color="#b7b8b9" offset="0"/>
<stop stop-color="#ececec" offset=".18851"/>
<stop stop-color="#fafafa" stop-opacity="0" offset=".25718"/>
<stop stop-color="#fff" stop-opacity="0" offset=".30111"/>
<stop stop-color="#fafafa" stop-opacity="0" offset=".5313"/>
<stop stop-color="#ebecec" stop-opacity="0" offset=".8449"/>
<stop stop-color="#e1e2e3" stop-opacity="0" offset="1"/>
</radialGradient>
<linearGradient id="lg3322" x1="25.132" x2="25.132" y1=".98521" y2="47.013" gradientTransform="matrix(1 0 0 .95617 -1.0065e-7 -1.9149)" gradientUnits="userSpaceOnUse">
<stop stop-color="#f4f4f4" offset="0"/>
<stop stop-color="#dbdbdb" offset="1"/>
</linearGradient>
<linearGradient id="lg3324" x1="-51.786" x2="-51.786" y1="50.786" y2="2.9062" gradientTransform="matrix(.8075 0 0 .89483 59.41 -2.9806)" gradientUnits="userSpaceOnUse">
<stop stop-color="#aaa" offset="0"/>
<stop stop-color="#c8c8c8" offset="1"/>
</linearGradient>
<radialGradient id="rg3327" cx="605.71" cy="486.65" r="117.14" gradientTransform="matrix(.02304 0 0 .0147 26.361 37.04)" gradientUnits="userSpaceOnUse" xlink:href="#lg5060"/>
<radialGradient id="rg3330" cx="605.71" cy="486.65" r="117.14" gradientTransform="matrix(-.02304 0 0 .0147 21.623 37.04)" gradientUnits="userSpaceOnUse" xlink:href="#lg5060"/>
<linearGradient id="lg3333" x1="302.86" x2="302.86" y1="366.65" y2="609.51" gradientTransform="matrix(.067325 0 0 .0147 -.34114 37.04)" gradientUnits="userSpaceOnUse">
<stop stop-opacity="0" offset="0"/>
<stop offset=".5"/>
<stop stop-opacity="0" offset="1"/>
</linearGradient>
<filter id="f3212" x="-.14846" y="-.16434" width="1.2969" height="1.3287" color-interpolation-filters="sRGB">
<feGaussianBlur stdDeviation="0.77391625"/>
</filter>
</defs>
<g transform="translate(.0081 1.4681)">
<rect x="7.7378" y="42.43" width="32.508" height="3.5701" fill="url(#lg3333)" opacity=".3"/>
<path d="m7.7378 42.43v3.5699c-1.1865 0.0067-2.8684-0.79982-2.8684-1.7852 0-0.98533 1.324-1.7847 2.8684-1.7847z" fill="url(#rg3330)" opacity=".3"/>
<path d="m40.246 42.43v3.5699c1.1865 0.0067 2.8684-0.79982 2.8684-1.7852 0-0.98533-1.324-1.7847-2.8684-1.7847z" fill="url(#rg3327)" opacity=".3"/>
<path d="m6.5 0.4972h24.061c1.4069 0.47465 8.9655 5.8822 10.939 9.6264v34.379h-35v-44.006z" fill="url(#lg3322)" stroke="url(#lg3324)" stroke-linejoin="round" stroke-width=".99992"/>
<path d="m7.3617 44c-0.1993 0-0.3617-0.17546-0.3617-0.39078v-42.204c0-0.21571 0.1624-0.39078 0.3617-0.39078 7.4833 0.1082 15.775-0.16138 23.249 0.0271l10.283 8.866 0.106 33.702c0 0.216-0.162 0.391-0.362 0.391h-33.276z" fill="url(#rg3319)"/>
<path d="m40.5 10.259v33.263h-33v-42.045h22.866" fill="none" opacity=".6" stroke="url(#lg3316)" stroke-linejoin="round" stroke-width=".99992"/>
<path d="m28.617 0.92126c4.2825 0 2.1532 8.4832 2.1532 8.4832s10.358-1.8023 10.358 2.8187c0-2.6097-11.302-10.729-12.511-11.302z" fill-rule="evenodd" filter="url(#f3212)" opacity=".4"/>
<path d="m28.617 0.92126c3.1865 0 2.3358 7.6619 2.3358 7.6619s10.175-0.98105 10.175 3.64c0-1.1259 0.08591-1.9322-0.13378-2.2836-1.578-2.5243-8.395-8.1885-10.857-8.9309-0.184-0.05556-0.593-0.08754-1.52-0.08754z" fill="url(#lg3312)" fill-rule="evenodd"/>
</g>
</svg>