<svg width="48" height="48" xmlns="http://www.w3.org/2000/svg" xmlns:xlink="http://www.w3.org/1999/xlink">
<!-- Humanity icon theme GNU GPL 2 https://opensource.org/licenses/gpl-2.0 -->
<defs>
<linearGradient id="lg2467" x1="302.86" x2="302.86" y1="366.65" y2="609.51" gradientTransform="matrix(.067325 0 0 .0147 -.34114 37.04)" gradientUnits="userSpaceOnUse">
<stop stop-opacity="0" offset="0"/>
<stop offset=".5"/>
<stop stop-opacity="0" offset="1"/>
</linearGradient>
<radialGradient id="rg2464" cx="605.71" cy="486.65" r="117.14" gradientTransform="matrix(-.02304 0 0 .0147 21.623 37.04)" gradientUnits="userSpaceOnUse" xlink:href="#lg5060"/>
<linearGradient id="lg5060">
<stop offset="0"/>
<stop stop-opacity="0" offset="1"/>
</linearGradient>
<radialGradient id="rg2461" cx="605.71" cy="486.65" r="117.14" gradientTransform="matrix(.02304 0 0 .0147 26.361 37.04)" gradientUnits="userSpaceOnUse" xlink:href="#lg5060"/>
<linearGradient id="lg2458" x1="-51.786" x2="-51.786" y1="53.624" y2="2.9062" gradientTransform="matrix(.8075 0 0 .89483 59.41 -2.9806)" gradientUnits="userSpaceOnUse">
<stop stop-color="#791235" offset="0"/>
<stop stop-color="#dd3b27" offset="1"/>
</linearGradient>
<radialGradient id="rg2456" cx="14.766" cy="10.898" r="18" gradientTransform="matrix(-2.2703e-8 2.1357 -3.5601 -3.7845e-8 54.621 -24.438)" gradientUnits="userSpaceOnUse">
<stop stop-color="#f89b7e" offset="0"/>
<stop stop-color="#e35d4f" offset=".26238"/>
<stop stop-color="#c6262e" offset=".66094"/>
<stop stop-color="#690b2c" offset="1"/>
</radialGradient>
<radialGradient id="rg2453" cx="102" cy="112.3" r="139.56" gradientTransform="matrix(.3617 0 0 -.39078 .85106 47.517)" gradientUnits="userSpaceOnUse">
<stop offset="0"/>
<stop offset=".18851"/>
<stop stop-opacity="0" offset=".25718"/>
<stop stop-opacity="0" offset="1"/>
</radialGradient>
<linearGradient id="lg2450" x1="24" x2="24" y1="2" y2="46.017" gradientTransform="matrix(1 0 0 .97778 0 -.96667)" gradientUnits="userSpaceOnUse">
<stop stop-color="#fff" offset="0"/>
<stop stop-color="#fff" stop-opacity="0" offset="1"/>
</linearGradient>
<linearGradient id="lg2447" x1="23.97" x2="23.97" y1="3.981" y2="44.024" gradientTransform="matrix(.89474 0 0 1.1316 2.5263 -4.6579)" gradientUnits="userSpaceOnUse">
<stop stop-color="#fff" offset="0"/>
<stop stop-color="#dcdcdc" offset="1"/>
</linearGradient>
<filter id="f3212" x="-.14846" y="-.16434" width="1.2969" height="1.3287">
<feGaussianBlur stdDeviation="0.77391625"/>
</filter>
<linearGradient id="lg2441" x1="32.892" x2="36.358" y1="8.059" y2="5.4565" gradientTransform="matrix(.9977 0 0 1.0407 .1638 -1.1058)" gradientUnits="userSpaceOnUse">
<stop stop-color="#fefefe" offset="0"/>
<stop stop-color="#cbcbcb" offset="1"/>
</linearGradient>
<linearGradient id="lg2438" x1="35.517" x2="34.103" y1="4.8577" y2="6.5436" gradientUnits="userSpaceOnUse">
<stop stop-color="#c4c4c4" offset="0"/>
<stop stop-color="#c4c4c4" stop-opacity="0" offset="1"/>
</linearGradient>
</defs>
<g transform="translate(.00775 1.4682)">
<rect x="7.7378" y="42.43" width="32.508" height="3.5701" fill="url(#lg2467)" opacity=".3"/>
<path d="m7.7378 42.43v3.57c-1.1865 7e-3 -2.8683-0.8-2.8683-1.785 0-0.986 1.324-1.785 2.8683-1.785z" fill="url(#rg2464)" opacity=".3"/>
<path d="m40.246 42.43v3.57c1.187 7e-3 2.869-0.8 2.869-1.785 0-0.986-1.325-1.785-2.869-1.785z" fill="url(#rg2461)" opacity=".3"/>
<path d="m6.5 0.4972h24.061c0.525 1.9602 6.133 6.8516 10.939 9.6268v34.379h-35v-44.006z" fill="url(#rg2456)" stroke="url(#lg2458)" stroke-linejoin="round" stroke-width=".99992"/>
<path d="m7.3617 44c-0.1993 0-0.3617-0.175-0.3617-0.391v-42.204c0-0.2155 0.1624-0.3906 0.3617-0.3906 7.4833 0.108 15.775-0.16158 23.249 0.0269l10.283 8.866 0.106 33.702c0 0.216-0.162 0.391-0.362 0.391h-33.276z" fill="url(#rg2453)" opacity=".2"/>
<path d="m40.5 10.259v33.263h-33v-42.044c7.562-3e-4 15.304-3e-4 22.866-3e-4" fill="none" opacity=".4" stroke="url(#lg2450)" stroke-linejoin="round" stroke-width=".99992"/>
<path d="m27.406 1c-11.589 12.595-18.204 14.366-20.406 14.562v4.532c1.6621-0.294 5.832-1.314 10.281-4.844 5.706-4.526 12.531-13.125 12.531-13.125-1.87 4.6478-2.401 20.681-2.437 41.875h13.625v-2.125c-2.217-5.791-3.662-14.147-4.75-21.625-0.643-6.178-0.416-10.624 0.096-14.343-1.921-1.6317-5.621-4.1873-6.829-4.907h-2.111zm-20.406 21.938v5.031c4.811 0 12.203 7.302 15.781 16.031h3c-1.681-7.935-15.11-21.062-18.781-21.062z" fill="url(#lg2447)" fill-rule="evenodd"/>
<path d="m34.495 5c-5.844 4.0398-17.783 11.014-27.495 9.903v8.983s26.154 4.71 34-5.238v-7.895c-1.355-1.8339-4.358-4.1262-6.505-5.753zm6.505 22.893c-3.121 3.453-6.951 10.273-9.637 16.107l-3.363-0.029c3.138-8.202 8.212-16.258 13-21.971v5.893z" fill-rule="evenodd" opacity=".15"/>
<path d="m28.617 0.92126c4.283 0 2.154 8.4831 2.154 8.4831s10.357-1.8023 10.357 2.8186c0-2.6095-11.302-10.728-12.511-11.302z" fill-rule="evenodd" filter="url(#f3212)" opacity=".4"/>
<path d="m28.617 0.92126c3.187 0 2.336 7.6618 2.336 7.6618s10.175-0.981 10.175 3.6399c0-1.126 0.086-1.932-0.134-2.2834-1.578-2.5242-8.113-8.1884-10.575-8.9308-0.184-0.05556-0.875-0.08754-1.802-0.08754z" fill="url(#lg2441)" fill-rule="evenodd"/>
<path d="m30.561 0.5c1.407 0.47465 8.965 5.8794 10.939 9.624v12.285c-40.446 15.729-35.236-21.909-10.939-21.909z" fill="none" stroke="url(#lg2438)" stroke-linejoin="round" stroke-width=".99992"/>
</g>
</svg>