<svg version="1.1" viewBox="0 0 472.49 130.23" xmlns="http://www.w3.org/2000/svg">
<g fill="#0d6cb1">
<rect y="28.32" width="19.97" height="19.98"/>
<rect x="27.81" y="28.32" width="19.98" height="19.98"/>
<rect y="55.64" width="19.97" height="19.98"/>
<rect x="27.81" y="55.64" width="19.98" height="19.98"/>
<rect x="55.63" y="55.64" width="19.97" height="19.98"/>
<rect y="82.94" width="19.97" height="19.98"/>
<rect x="27.81" y="82.94" width="19.98" height="19.98"/>
<rect x="55.63" y="82.94" width="19.97" height="19.98"/>
<rect x="83.44" y="82.94" width="19.98" height="19.98"/>
<polygon points="47.79 110.25 27.81 130.23 27.81 110.25"/>
</g>
<rect x="103.47" y=".03" width="28.31" height="28.31" fill="#e75321"/>
<rect x="89.91" y="46.33" width="20.32" height="20.31" fill="#9f0e58"/>
<rect x="69.1" y="21.76" width="15.83" height="15.81" fill="#1fbae5"/>
<g fill="#141414">
<path d="m263.26 102.93c-21.18 0-37.34-15.47-37.34-37.2 0-22.29 16.16-37.34 37.34-37.34s37.21 15 37.21 37.34c-0.02 21.73-15.91 37.2-37.21 37.2zm0-17.42c8.92 0 18.39-6.83 18.39-19.79 0-13.79-9.47-19.79-18.39-19.79-8.5 0-18.67 6.41-18.67 19.79-0.02 12.96 10.15 19.79 18.67 19.79z"/>
<path d="m310.46 102.88v-102.88h18.8v102.88z"/>
<path d="m343.06 19.87v-19.87h18.81v19.87zm18.81 8.41v74.6h-18.81v-74.6z"/>
<path d="m399.68 57.23c12.25 2.09 24.91 8.76 24.91 22.82 0 16.7-15.86 22.68-27.55 22.68-9.18 0-19.2-3.62-26.86-13.77l10.44-10.85a23.21 23.21 0 0 0 16.7 7.93c3.76 0.14 8.49-2.23 8.49-6 0-5.15-5.43-5.85-9-6.54-11.6-2.08-23.55-9.17-23.71-22.81 0-14.47 12.94-22.26 26.44-22.26 7.23 0 15.58 2.5 23.79 11l-10.16 10.3a22.47 22.47 0 0 0-13.78-4.73c-3.2 0-8.35 1.95-8.35 6.4 0 2.37 2.37 4.31 4.73 5 1.41 0.39 2.66 0.55 3.91 0.83z"/>
<polygon points="458.1 0 439.29 0 439.29 28.29 430.99 28.29 430.99 44.1 439.29 44.1 439.29 102.88 458.1 102.88 458.1 44.1 472.49 44.1 472.49 28.29 458.1 28.29"/>
<path d="m216.8 65.37v-65.37h-18.82v32.72a39.4 39.4 0 0 0-18.38-4.34c-21.18 0-37.34 15-37.34 37.34 0 21.74 16.16 37.2 37.34 37.2s37.21-15.47 37.21-37.2c-0.01-0.12-0.01-0.23-0.01-0.35zm-37.2 20.14c-8.5 0-18.67-6.83-18.67-19.79 0-13.38 10.17-19.79 18.67-19.79 8.87 0 18.28 5.93 18.38 19.56v0.2c0.01 12.99-9.46 19.82-18.38 19.82z"/>
</g>
</svg>
