<svg version="1.1" viewBox="0 0 400.18 82.674" xmlns="http://www.w3.org/2000/svg">
<defs>
<style>.cls-1{fill:#0c2838;}.cls-2{fill:#d9e506;}.cls-3{fill:#40877e;}.cls-4{fill:#32d17e;}.cls-5{fill:#6984d1;}</style>
</defs>
<path class="cls-1" d="m122.7 45.405v0.96586h-33.641c0.40242 7.9677 5.9556 11.187 13.601 11.187 6.5995 0 11.107-2.173 13.682-5.3118l4.2655 6.0361c-3.6217 3.1389-9.5774 6.1167-18.43 6.1167-12.233 0-21.167-6.5995-21.167-18.672v-1.0464c0-11.267 8.0482-19.959 21.006-19.959 15.453 0 20.764 10.543 20.684 20.684zm-8.4506-4.9093c-0.88524-5.7947-4.5874-9.5774-12.314-9.5774-6.9216 0-11.348 3.5412-12.555 9.5774z"/>
<path class="cls-1" d="m197.48 43.313v20.281h-8.9335v-20.362c0-7.0823-2.9778-10.865-10.141-10.865-4.8288 0-8.1286 1.6901-10.463 4.4265v26.8h-9.014v-21.65c0-6.0362-2.5754-9.6579-9.5774-9.6579a13.56 13.56 0 0 0-11.026 4.99v26.318h-8.9335v-38.148h7.9677l0.56344 5.6336c2.3339-3.0582 7.0018-6.358 14.326-6.358 6.0361 0 10.946 2.7363 13.038 7.0823a19.078 19.078 0 0 1 14.728-7.0823c11.589 2e-5 17.465 6.2776 17.465 18.591z"/>
<path class="cls-1" d="m236.36 63.594a25.569 25.569 0 0 1-0.80485-4.6679c-2.4949 2.5754-7.0019 5.4728-14.889 5.4728-8.2896 0-16.579-3.3803-16.579-12.072 0-9.5774 7.4848-12.555 16.982-12.555a36.284 36.284 0 0 1 14.245 2.9778l0.0804-2.334c0.0805-6.8409-4.9093-8.853-11.911-8.853-6.0362 0-10.785 1.6901-13.441 4.0241l-2.8168-6.8409a35.079 35.079 0 0 1 17.304-4.0241c10.785 0 18.913 4.6679 18.672 16.499-0.0805 3.7827-0.0805 8.3701-0.0805 12.153 0 5.9557 0.24153 8.5311 0.72446 10.221zm-1.0462-10.141v-5.3924a35.99 35.99 0 0 0-12.233-2.2535c-6.8409 0-10.704 1.2073-10.704 6.0362 0 4.6679 4.6679 5.9557 10.141 5.9557 5.1508 0 10.06-1.4487 12.797-4.346z"/>
<path class="cls-1" d="m276.86 26.17-1.5292 8.2896a9.4242 9.4242 0 0 0-5.2314-1.3682c-4.4265 0-7.8068 3.2998-9.2554 7.8068v22.696h-8.6115v-38.148h8.0482l0.48293 8.692c1.6096-5.7947 5.2312-9.0139 10.704-9.0139a13.122 13.122 0 0 1 5.3924 1.0463z"/>
<path class="cls-1" d="m279.23 59.731 2.8973-7.2435c3.4607 3.2192 9.336 5.1508 15.372 5.1508 7.002 0 11.267-1.6096 11.267-5.7947 0-4.346-4.8288-4.0241-12.877-4.8289-9.4164-1.1268-15.05-2.7363-15.05-9.7383 0-6.9216 5.4729-12.555 17.304-12.555a38.889 38.889 0 0 1 16.499 3.2192l-2.5753 6.68c-3.3804-2.2535-8.3702-3.2194-13.843-3.2194-6.2776 0-9.8188 1.7707-9.8188 5.3119 0 3.3803 4.8289 3.2998 12.555 4.1851 7.0018 0.80472 15.211 1.8511 15.211 10.543 0 8.7725-6.9213 12.877-18.35 12.877-7.4043 3e-5 -14.004-1.7706-18.591-4.5874z"/>
<path class="cls-1" d="m363.57 25.446c-9.6579 21.811-18.913 41.404-26.881 54.442l-8.4505-2.6558a97.106 97.106 0 0 0 8.2092-13.879l-17.545-37.907h9.4969l12.796 31.146 13.038-31.146z"/>
<path class="cls-1" d="m363.24 59.731 2.8973-7.2435c3.4609 3.2192 9.3361 5.1508 15.372 5.1508 7.0018 0 11.267-1.6096 11.267-5.7947 0-4.346-4.8288-4.0241-12.877-4.8289-9.4164-1.1268-15.05-2.7363-15.05-9.7383 0-6.9216 5.4729-12.555 17.304-12.555a38.888 38.888 0 0 1 16.499 3.2192l-2.5753 6.68c-3.3804-2.2535-8.3702-3.2194-13.843-3.2194-6.2777 0-9.8189 1.7707-9.8189 5.3119 0 3.3803 4.8288 3.2998 12.555 4.1851 7.0018 0.80472 15.211 1.8511 15.211 10.543 0 8.7725-6.9213 12.877-18.35 12.877-7.4043 3e-5 -14.004-1.7706-18.591-4.5874z"/>
<polygon class="cls-2" points="56.693 38.163 56.693 25.442 28.346 38.163 28.346 50.884"/>
<polygon class="cls-3" points="0 38.163 0 25.442 28.346 38.163 28.346 50.884"/>
<polygon class="cls-4" points="0 25.442 56.693 0 56.693 12.721 0 38.163"/>
<polygon class="cls-5" points="56.693 63.592 56.693 50.871 14.173 69.953 14.173 82.674"/>
</svg>
